<?xml version="1.0" encoding="UTF-8"?>
<svg width="120px" height="104px" viewBox="0 0 120 104" version="1.1" xmlns="http://www.w3.org/2000/svg" xmlns:xlink="http://www.w3.org/1999/xlink">
    <title>I</title>
    <g id="Page-1" stroke="none" stroke-width="1" fill="none" fill-rule="evenodd">
        <g id="aurelia-start" transform="translate(-450.000000, -3070.000000)" fill="#FF5D00">
            <g id="IconBrain" transform="translate(450.000000, 3070.662109)">
                <g id="I" transform="translate(-0.000000, 0.000000)">
                    <path d="M119.180417,45.8323045 C118.521018,44.6367396 117.424904,43.8389756 116.201233,43.5190052 L116.173128,34.3847159 C116.666055,34.1339283 117.100609,33.751261 117.407608,33.2432 C118.268069,31.8076572 117.805409,29.944046 116.369866,29.0814232 C114.936485,28.2188004 113.072874,28.6814602 112.208089,30.117003 C111.347629,31.5525457 111.810288,33.413995 113.245831,34.2787798 C113.433922,34.3912018 113.63066,34.4820042 113.829561,34.549025 L113.857666,43.5017095 C113.459865,43.5989978 113.064226,43.7460112 112.688045,43.9535596 C110.766061,45.010759 109.864523,47.1965025 110.344478,49.2309087 L103.363503,52.8262515 C103.112715,52.5646541 102.829498,52.3290002 102.503042,52.1344237 C102.124699,51.9074177 101.724736,51.7474325 101.313963,51.6523062 L100.849141,43.2703796 C101.904179,42.9331135 102.844632,42.226152 103.458629,41.1970581 C104.783912,38.9659133 104.048845,36.0796941 101.815538,34.7544114 C99.9216596,33.6301912 97.565121,33.9912388 96.0798531,35.4851545 L86.7769308,30.5191279 C87.047176,29.4403089 87.0190705,28.3268985 86.7207198,27.2848328 L94.2011082,24.0526997 C95.6193552,26.2038518 98.0537244,27.6264228 100.823198,27.6264228 C105.199009,27.6264228 108.74895,24.0764812 108.74895,19.7006702 C108.74895,15.3226972 105.199009,11.7749176 100.823198,11.7749176 C98.1272311,11.7749176 95.749073,13.1218199 94.3178541,15.1778458 L86.8374657,11.7251925 C87.3584986,9.16542953 86.2342783,6.44568138 83.8474723,5.06418768 C80.8574789,3.32813222 77.0264823,4.3464163 75.2904268,7.33640971 C73.5543714,10.3285651 74.5748174,14.1595617 77.5648108,15.8934552 C80.4618399,17.5732996 84.1393372,16.6674376 85.9445754,13.8936404 L93.2757885,17.2771108 C93.0293248,18.0424454 92.8952832,18.8531811 92.8952832,19.7006702 C92.8952832,20.4724906 93.0120291,21.2183675 93.2174155,21.9253291 L85.6678443,25.1877297 C85.1857268,24.5585988 84.5760535,24.0116224 83.8474723,23.5878778 C80.8574789,21.8539843 77.0264823,22.8701065 75.2904268,25.8622618 C73.5543714,28.8522552 74.5748174,32.6854138 77.5648108,34.4193073 C80.3818473,36.0537505 83.9382747,35.2451768 85.7932381,32.6508224 L94.8972599,37.508751 C94.32434,39.5128897 95.1372377,41.7267388 97.0116587,42.8401492 C97.4894523,43.1233662 97.9953514,43.307133 98.5077364,43.4065832 L98.9747202,51.7820239 C98.1034495,52.0933464 97.3294672,52.6943718 96.8127582,53.5505088 C95.632327,55.5135702 96.2657819,58.0603614 98.2310053,59.2407927 C100.191905,60.4212239 102.740858,59.787769 103.919127,57.8247076 C104.466104,56.9145216 104.619603,55.8767798 104.435836,54.9103828 L111.423297,51.3107162 C112.871812,52.9473214 115.306181,53.425115 117.301672,52.3246763 C119.612809,51.0512807 120.455974,48.1456038 119.180417,45.8323045" id="Fill-1"></path>
                    <path d="M80.7063578,43.029537 C77.4461191,43.029537 74.5663858,44.6293889 72.7870911,47.0832157 L65.5510044,43.0684524 C66.3401205,40.3681619 65.231034,37.3781684 62.6885667,35.9037104 C62.161048,35.5967118 61.6054238,35.3805156 61.0411517,35.24215 L61.4086852,28.5638495 C64.716487,28.1898301 67.2848979,25.3857654 67.2848979,21.9806753 C67.2848979,19.3020044 65.6958558,17.0016769 63.4085001,15.9552873 L65.6742362,7.85657776 C67.7583675,7.75280358 69.4144304,6.03404382 69.4101065,3.9261309 C69.4036206,1.75335912 67.6394596,-0.00431596331 65.4666878,0 C63.5468656,0.00433188457 61.9556616,1.38150166 61.6119097,3.20187364 L54.6439062,3.48292869 C54.3412316,2.58571448 53.7315583,1.78795051 52.8559637,1.26259375 C50.8950642,0.0821625155 48.346111,0.715617372 47.1656798,2.67651688 C46.1495577,4.3693331 46.4824998,6.49237975 47.8510217,7.80469067 L41.0300317,20.9450955 C38.1567843,20.1343598 34.98951,21.3234389 33.4220875,24.0258913 C31.5649622,27.229919 32.654591,31.3311608 35.8564567,33.1882862 C36.3450601,33.4736651 36.8574451,33.6790515 37.3784779,33.8282269 L37.0995848,41.1702497 C32.3043532,41.8037046 28.6009123,45.8962986 28.6009123,50.8623252 C28.6009123,56.2672302 32.9832093,60.6473651 38.3881142,60.6473651 C41.7088878,60.6473651 44.6383462,58.9891403 46.4089931,56.4574828 L55.0957563,60.8376178 C54.8514546,62.6277223 55.6751621,64.4740378 57.329063,65.4512446 C57.6814628,65.658793 58.0511583,65.8101303 58.4251777,65.9160664 L58.524628,75.5151776 C57.5517451,75.8092044 56.6847983,76.455631 56.13566,77.4068943 C55.5735499,78.3819392 55.454642,79.4867017 55.7097535,80.4984999 L47.9202045,85.1056409 C47.7407617,84.9391698 47.5440231,84.7856705 47.323503,84.6581148 C45.8036437,83.7825202 43.8643639,84.301391 42.9887693,85.8190883 C42.1110127,87.3389476 42.6342075,89.2782275 44.1519048,90.1538221 C45.6696021,91.0294167 47.608882,90.5083838 48.4844766,88.9906865 C48.800123,88.4415482 48.9341647,87.8361988 48.9038972,87.2481452 L56.9074804,82.5134485 C57.1323245,82.7188349 57.3787881,82.9069256 57.6555193,83.0669107 C59.6380384,84.2105886 62.1718578,83.5295706 63.3155357,81.5470515 C64.4592136,79.5645324 63.7803575,77.0307129 61.7978384,75.887035 C61.4973257,75.7140781 61.1860031,75.5886843 60.8681947,75.4978819 L60.7687445,65.9614676 C61.9426898,65.6804126 63.0042132,64.9410216 63.6679355,63.8211253 C64.9694366,61.620248 64.2386934,58.77943 62.0378162,57.4800908 C59.9926001,56.2715541 57.4004077,56.8185305 55.9972944,58.667008 L47.5072698,54.3884852 C47.9310143,53.2945325 48.1709921,52.1076153 48.1709921,50.8623252 C48.1709921,45.816306 44.3529673,41.665339 39.4453136,41.1356583 L39.7133969,34.0725286 C41.8450914,33.9147054 43.8643639,32.74076 45.0166896,30.753917 C46.7613929,27.7466279 45.905256,23.9480607 43.1465925,21.9568937 L49.9308291,8.88134773 C51.5912159,9.20348006 53.351053,8.48570869 54.2720488,6.95287765 C54.4904069,6.59183 54.6439062,6.2113247 54.7411945,5.82433351 L61.8843169,5.5346306 C62.2064492,6.2567259 62.7382918,6.85991329 63.4041761,7.27284803 L61.13844,15.3758815 C60.9784548,15.3650717 60.8206316,15.3520999 60.6584844,15.3520999 C56.9961209,15.3520999 54.0277471,18.3183117 54.0277471,21.9806753 C54.0277471,25.0939005 56.1767373,27.6990647 59.0716043,28.4103502 L58.7019088,35.1210802 C56.8555933,35.3761917 55.1389955,36.4420389 54.1315212,38.1780944 C52.3954658,41.1702497 53.4159118,45.0012464 56.4059052,46.7351398 C59.149435,48.3263439 62.5956024,47.5956007 64.4873191,45.1569076 L71.6455752,49.1284317 C71.1829153,50.2677857 70.9213179,51.5087519 70.9213179,52.8145769 C70.9213179,56.5504472 73.016259,59.7955521 76.0948929,61.4451291 L73.6324182,67.7818396 C71.997975,67.8272408 70.687826,69.1633333 70.6921499,70.8064244 C70.6943119,72.4754591 72.052024,73.8266853 73.7232206,73.8223614 C75.3900933,73.8180374 76.7413195,72.4624873 76.7369956,70.7912907 C76.7348336,69.9416396 76.3802719,69.1763051 75.8138378,68.6293287 L78.2806364,62.2861323 C79.0567808,62.4850328 79.8675165,62.5996168 80.7063578,62.5996168 C86.1112627,62.5996168 90.4913976,58.2194818 90.4913976,52.8145769 C90.4913976,47.409672 86.1112627,43.029537 80.7063578,43.029537" id="Fill-4"></path>
                    <path d="M44.2338432,66.328785 C41.457884,66.3352709 39.2137675,68.5880352 39.2202533,71.3661564 C39.2224153,71.7639574 39.2721404,72.1487866 39.3607809,72.5206441 L33.9147987,75.2836315 C33.5732087,74.8750206 33.1624359,74.511811 32.6781564,74.2264321 C30.9010237,73.1757185 28.723928,73.4156963 27.2192025,74.6588244 L21.8834803,70.9921369 C21.9721208,70.6894623 22.0218459,70.3694919 22.0196839,70.0387117 C22.0110361,68.5123666 20.9624845,67.234647 19.5528853,66.8692755 L19.7690815,60.7249796 C20.3355155,60.6125575 20.8976257,60.4071711 21.4229824,60.0915247 C23.8595136,58.6257145 24.6464677,55.4649261 23.1828195,53.0283949 C21.7191712,50.5918638 18.5562208,49.8049097 16.1196897,51.2685579 C14.0506921,52.511686 13.1772595,54.9806466 13.8561155,57.1880098 L6.13358737,61.6892146 C5.67308947,61.4059976 5.13043701,61.2460124 4.55319317,61.2546602 C2.92307384,61.2806038 1.6237347,62.6210202 1.64929641,64.2489776 C1.67345982,65.8790969 3.01603821,67.1762741 4.64399557,67.1503305 C6.27195293,67.1265489 7.57129208,65.7861325 7.54534853,64.1560132 C7.54318657,63.9700845 7.52156695,63.7884797 7.4848136,63.6133607 L15.0322228,59.2137681 C15.6959452,59.9164058 16.5283005,60.4006853 17.4255147,60.642825 L17.1985087,67.1330348 C16.1391474,67.6864971 15.4170521,68.7977456 15.4235379,70.0754651 C15.4343478,71.8958371 16.9174537,73.3638092 18.7378256,73.3551614 C19.3712805,73.3508375 19.9571722,73.1670707 20.4587474,72.8557482 L25.8355468,76.5527031 C24.9664381,78.7016933 25.7706879,81.222541 27.8288757,82.4375636 C28.2872117,82.7078089 28.7736531,82.8894137 29.2665804,82.9931878 L29.1325388,94.3975372 C27.2537938,94.8947885 25.8723001,96.6027384 25.878786,98.6349827 C25.88311,101.052056 27.8461714,103.00647 30.2632449,103 C32.6803184,102.993498 34.636894,101.030437 34.6304081,98.6133631 C34.6260842,96.6243581 33.2921536,94.9509995 31.4761056,94.4234808 L31.6101472,82.8980615 C32.7235576,82.5672813 33.7223841,81.8343762 34.3601628,80.7555572 C34.9806459,79.7026817 35.147117,78.5092787 34.922273,77.3980303 L40.4223042,74.6112613 C41.3476239,75.6944042 42.7226317,76.3797462 44.2576247,76.3775842 C47.0314219,76.3710983 49.2777004,74.116172 49.2712286,71.3402128 C49.2625667,68.5664156 47.0076404,66.3222991 44.2338432,66.328785" id="Fill-6"></path>
                    <path d="M36.9138723,4.41840964 C34.7065091,3.13852815 31.8829868,3.88872895 30.6031053,6.09393016 C29.9004677,7.30895279 29.8139892,8.70774218 30.2420577,9.93573658 L23.3691806,14.7223204 C22.0763273,13.3970377 20.2710891,12.5711682 18.2734362,12.5711682 C14.3365035,12.5711682 11.1454476,15.7643861 11.1454476,19.6991568 C11.1454476,23.4155695 13.9884276,26.4660978 17.6205237,26.794716 L18.1783099,34.3442872 C17.3546024,34.6231803 16.6065635,35.1290794 16.0358056,35.836041 L8.42353749,32.3444724 C8.57919875,31.4061809 8.41488964,30.4095164 7.88737092,29.5317599 C6.70693968,27.5708604 4.16231044,26.9374055 2.19708701,28.1156748 C0.236187508,29.296106 -0.399429311,31.8450592 0.781001924,33.8059587 C1.30203476,34.6707435 2.08898892,35.2760928 2.97323136,35.5852534 L2.97323136,44.1574326 C1.23069001,44.6698176 -0.0297338145,46.2891271 0.000533653068,48.1938156 C0.0351250446,50.4833333 1.92035588,52.3101912 4.20987361,52.2734378 C6.49939133,52.2388464 8.32408723,50.3536156 8.28949584,48.0640979 C8.25922838,46.2048106 7.01177632,44.6503599 5.31679814,44.1509467 L5.31679814,35.6998374 C5.71243718,35.6025491 6.10159033,35.4447259 6.47128583,35.2242057 C6.82800955,35.0080095 7.14149404,34.7485741 7.40741536,34.4545473 L15.0564368,37.9655735 C14.7191707,39.8399945 15.5450402,41.8095419 17.2789337,42.8386358 C19.5122404,44.1660804 22.3962977,43.4310134 23.7237423,41.1977067 C25.051187,38.9643999 24.313958,36.0803427 22.0828132,34.75506 C21.5834,34.4588712 21.0515573,34.2707805 20.5132288,34.1734922 L19.9576046,26.6195971 C23.0794777,25.8607484 25.4014248,23.0545218 25.4014248,19.6991568 C25.4014248,18.6052041 25.1463133,17.5717863 24.707435,16.6464665 L31.5500447,11.8815024 C31.7727268,12.0760789 32.0148665,12.2533598 32.2786259,12.4068591 C34.485989,13.6867406 37.3138353,12.9343778 38.5915548,10.7291766 C39.8714363,8.52397542 39.1212355,5.69612916 36.9138723,4.41840964" id="Fill-9"></path>
                </g>
            </g>
        </g>
    </g>
</svg>