<?xml version="1.0" encoding="UTF-8"?>
<svg width="398px" height="269px" viewBox="0 0 398 269" version="1.1" xmlns="http://www.w3.org/2000/svg" xmlns:xlink="http://www.w3.org/1999/xlink">
    <title>LogoSTage</title>
    <defs>
        <polygon id="path-1" points="0 0 51.8444226 0 51.8444226 65.6837226 0 65.6837226"></polygon>
        <polygon id="path-3" points="0 0 61.5903196 0 61.5903196 65.6853449 0 65.6853449"></polygon>
        <polygon id="path-5" points="0 0 51.8471266 0 51.8471266 65.6839028 0 65.6839028"></polygon>
        <polygon id="path-7" points="0 0 51.8453239 0 51.8453239 65.6837226 0 65.6837226"></polygon>
        <polygon id="path-9" points="0 0 48.4365583 0 48.4365583 65.6837226 0 65.6837226"></polygon>
        <polygon id="path-11" points="0 268 397.316778 268 397.316778 0 0 0"></polygon>
    </defs>
    <g id="Page-1" stroke="none" stroke-width="1" fill="none" fill-rule="evenodd">
        <g id="aurelia-start" transform="translate(-761.000000, -362.000000)">
            <g id="LogoSTage" transform="translate(761.341611, 362.336000)">
                <polygon id="Fill-1" fill="#FF5D00" points="124.105386 149.107808 273.211392 149.107808 273.211392 0 124.105386 0"></polygon>
                <g id="Group-24" transform="translate(0.000000, 0.000000)">
                    <g id="Group-4" transform="translate(0.000000, 202.316277)">
                        <mask id="mask-2" fill="white">
                            <use xlink:href="#path-1"></use>
                        </mask>
                        <g id="Clip-3"></g>
                        <path d="M46.9737274,30.3075495 L46.9737274,16.0361601 C46.9737274,12.9302357 45.8687177,10.2911913 43.6586983,8.124435 C41.4504816,5.95587602 38.8186478,4.87249785 35.7649995,4.87249785 L16.0803245,4.87249785 C12.9617816,4.87249785 10.3137242,5.95587602 8.13795469,8.124435 C5.96038259,10.2911913 4.87339916,12.9302357 4.87339916,16.0361601 L4.87339916,30.3075495 L46.9737274,30.3075495 Z M51.8444226,65.6840831 L46.9737274,65.6840831 L46.9737274,35.1800474 L4.87339916,35.1800474 L4.87339916,65.6840831 L-0.000901312957,65.6840831 L-0.000901312957,16.0794232 C-0.000901312957,11.661187 1.57279111,7.87747525 4.72558384,4.72648515 C7.87657393,1.57549505 11.6602857,0 16.0803245,0 L35.7649995,0 C40.1832356,0 43.9669474,1.57549505 47.1197401,4.72648515 C50.2689276,7.87747525 51.8444226,11.661187 51.8444226,16.0794232 L51.8444226,65.6840831 Z" id="Fill-2" fill="#FFFFFF" mask="url(#mask-2)"></path>
                    </g>
                    <g id="Group-7" transform="translate(63.832786, 202.314655)">
                        <mask id="mask-4" fill="white">
                            <use xlink:href="#path-3"></use>
                        </mask>
                        <g id="Clip-6"></g>
                        <path d="M61.5903196,49.6046599 C61.5903196,54.0246987 60.0148246,57.8084105 56.8638345,60.9594006 C53.7128444,64.1121933 49.92733,65.6858857 45.5108965,65.6858857 L16.0794232,65.6858857 C11.661187,65.6858857 7.87567262,64.1121933 4.72648515,60.9594006 C1.57369242,57.8084105 0,54.0246987 0,49.6046599 L0,0 L4.87249785,0 L4.87249785,49.6046599 C4.87249785,52.7232028 5.95948127,55.3712602 8.13705338,57.5470297 C10.3128229,59.7246018 12.9608803,60.8133879 16.0794232,60.8133879 L45.5108965,60.8133879 C48.5627421,60.8133879 51.194576,59.7246018 53.4045954,57.5470297 C55.6146147,55.3712602 56.7178218,52.7232028 56.7178218,49.6046599 L56.7178218,0 L61.5903196,0 L61.5903196,49.6046599 Z" id="Fill-5" fill="#FFFFFF" mask="url(#mask-4)"></path>
                    </g>
                    <g id="Group-10" transform="translate(136.433545, 202.316097)">
                        <mask id="mask-6" fill="white">
                            <use xlink:href="#path-5"></use>
                        </mask>
                        <g id="Clip-9"></g>
                        <path d="M46.9746287,21.1466046 L46.9746287,16.0794232 C46.9746287,12.9608803 45.8858427,10.3146255 43.7100732,8.13705338 C41.5325011,5.9612839 38.8862462,4.87249785 35.7677034,4.87249785 L16.0812258,4.87249785 C13.0257749,4.87249785 10.3957437,5.9612839 8.1875269,8.13705338 C5.97931016,10.3146255 4.87430047,12.9608803 4.87430047,16.0794232 L4.87430047,21.1466046 L4.87430047,32.3553325 L35.7929402,32.3553325 C38.9024699,32.3553325 41.5451195,31.2665465 43.7172837,29.0889744 C45.8894479,26.9132049 46.9746287,24.2651474 46.9746287,21.1466046 L46.9746287,21.1466046 Z M51.8471266,65.6840831 L46.9746287,65.6840831 L46.9746287,48.4347557 C46.9746287,45.3162129 45.8894479,42.6681554 43.7172837,40.4905833 C41.5451195,38.3148138 38.9024699,37.2278304 35.7929402,37.2278304 L4.87430047,37.2278304 L4.87430047,65.6840831 L0,65.6840831 L0,16.0794232 C0,11.661187 1.57549505,7.87747525 4.72648515,4.72648515 C7.87927787,1.57549505 11.661187,0 16.0812258,0 L35.7677034,0 C40.1841369,0 43.9678487,1.57549505 47.1206414,4.72648515 C50.2716315,7.87747525 51.8471266,11.661187 51.8471266,16.0794232 L51.8471266,21.1466046 C51.8471266,27.0592176 49.3144372,31.6072428 44.2454531,34.7888775 C49.3144372,37.9741175 51.8471266,42.5221427 51.8471266,48.4347557 L51.8471266,65.6840831 Z" id="Fill-8" fill="#FFFFFF" mask="url(#mask-6)"></path>
                    </g>
                    <g id="Group-13" transform="translate(200.170071, 202.316277)">
                        <mask id="mask-8" fill="white">
                            <use xlink:href="#path-7"></use>
                        </mask>
                        <g id="Clip-12"></g>
                        <path d="M51.8453239,65.6840831 L16.0794232,65.6840831 C11.661187,65.6840831 7.87567262,64.1103907 4.72648515,60.9575979 C1.57369242,57.8066078 0,54.022896 0,49.6028573 L0,46.4843145 C0,40.5735041 2.53449204,36.0254789 7.60167348,32.8420415 C2.53449204,29.6604068 0,25.110579 0,19.197966 L0,16.0794232 C0,11.661187 1.57369242,7.87747525 4.72648515,4.72648515 C7.87567262,1.57549505 11.661187,0 16.0794232,0 L51.8453239,0 L51.8453239,4.87249785 L16.0794232,4.87249785 C13.0257749,4.87249785 10.393941,5.95587602 8.18572428,8.124435 C5.97750753,10.2911913 4.87249785,12.9302357 4.87249785,16.0361601 L4.87249785,19.1438872 C4.87249785,22.248009 5.97750753,24.8870534 8.18572428,27.0556124 C10.393941,29.2223687 13.0257749,30.3075495 16.0794232,30.3075495 L35.7659008,30.3075495 L35.7659008,35.1800474 L16.0794232,35.1800474 C13.0257749,35.1800474 10.393941,36.2742413 8.18572428,38.4572213 C5.97750753,40.6420039 4.87249785,43.3008771 4.87249785,46.4302357 L4.87249785,49.5613969 C4.87249785,52.6907555 5.97750753,55.3514313 8.18572428,57.5344113 C10.393941,59.7191939 13.0257749,60.8115852 16.0794232,60.8115852 L51.8453239,60.8115852 L51.8453239,65.6840831 Z" id="Fill-11" fill="#FFFFFF" mask="url(#mask-8)"></path>
                    </g>
                    <g id="Group-16" transform="translate(264.779969, 202.316277)">
                        <mask id="mask-10" fill="white">
                            <use xlink:href="#path-9"></use>
                        </mask>
                        <g id="Clip-15"></g>
                        <path d="M48.4365583,65.6840831 L16.0812258,65.6840831 C11.661187,65.6840831 7.87747525,64.1103907 4.72648515,60.9575979 C1.57549505,57.8066078 0,54.022896 0,49.6028573 L0,0 L4.87249785,0 L4.87249785,49.6028573 C4.87249785,52.7232028 5.9612839,55.3694576 8.13885601,57.5452271 C10.3146255,59.7227992 12.9608803,60.8115852 16.0812258,60.8115852 L48.4365583,60.8115852 L48.4365583,65.6840831 Z" id="Fill-14" fill="#FFFFFF" mask="url(#mask-10)"></path>
                    </g>
                    <mask id="mask-12" fill="white">
                        <use xlink:href="#path-11"></use>
                    </mask>
                    <g id="Clip-18"></g>
                    <polygon id="Fill-17" fill="#FFFFFF" mask="url(#mask-12)" points="327.832759 268 332.705257 268 332.705257 202.315917 327.832759 202.315917"></polygon>
                    <path d="M392.445902,232.623827 L392.445902,218.352438 C392.445902,215.246513 391.340893,212.607469 389.132676,210.440712 C386.922657,208.272153 384.290823,207.188775 381.237174,207.188775 L361.552499,207.188775 C358.433957,207.188775 355.785899,208.272153 353.61013,210.440712 C351.432558,212.607469 350.345574,215.246513 350.345574,218.352438 L350.345574,232.623827 L392.445902,232.623827 Z M397.316598,268.000361 L392.445902,268.000361 L392.445902,237.496325 L350.345574,237.496325 L350.345574,268.000361 L345.471274,268.000361 L345.471274,218.395701 C345.471274,213.977464 347.044966,210.193753 350.197759,207.042763 C353.348749,203.891772 357.132461,202.316277 361.552499,202.316277 L381.237174,202.316277 C385.655411,202.316277 389.439122,203.891772 392.591915,207.042763 C395.741103,210.193753 397.316598,213.977464 397.316598,218.395701 L397.316598,268.000361 Z" id="Fill-19" fill="#FFFFFF" mask="url(#mask-12)"></path>
                    <path d="M249.899292,71.6311262 C249.349491,70.6342741 248.43556,69.9691051 247.415274,69.7023165 L247.39184,62.086222 C247.802838,61.8771174 248.165166,61.5580526 248.421139,61.1344355 C249.138584,59.9374919 248.752822,58.3836284 247.555879,57.6643807 C246.360738,56.9451329 244.806874,57.3308949 244.085824,58.5278385 C243.368379,59.7247821 243.754141,61.276843 244.951084,61.9978933 C245.107913,62.0916299 245.271952,62.1673402 245.437793,62.2232216 L245.461227,69.6878955 C245.129544,69.7690137 244.799664,69.8915922 244.486007,70.0646443 C242.883472,70.9461284 242.131777,72.7685832 242.53196,74.4648542 L236.711281,77.4626211 C236.502177,77.2445033 236.266033,77.0480171 235.993836,76.8857808 C235.678377,76.6965051 235.344891,76.5631107 235.002392,76.4837952 L234.614827,69.4950145 C235.494509,69.2138049 236.278651,68.6243462 236.790597,67.7662963 C237.895606,65.9059863 237.282714,63.4994807 235.420601,62.3944711 C233.841501,61.4571056 231.876639,61.7581441 230.638235,63.0037586 L222.881535,58.8631269 C223.106863,57.9636166 223.083429,57.0352642 222.834667,56.1663985 L229.071753,53.4714728 C230.254275,55.2650856 232.284032,56.4512134 234.593196,56.4512134 C238.241711,56.4512134 241.201622,53.4913017 241.201622,49.8427868 C241.201622,46.1924693 238.241711,43.2343602 234.593196,43.2343602 C232.345321,43.2343602 230.362433,44.3573961 229.169094,46.0716934 L222.932009,43.1928998 C223.366442,41.0585907 222.429076,38.7908873 220.438977,37.6390094 C217.945945,36.1915008 214.751692,37.0405376 213.304184,39.5335692 C211.856675,42.0284035 212.707515,45.2226566 215.200546,46.6683626 C217.616065,48.0690029 220.682332,47.3137026 222.187524,45.0009336 L228.300229,47.8220432 C228.094729,48.4601727 227.982967,49.1361574 227.982967,49.8427868 C227.982967,50.4863243 228.080308,51.1082302 228.251558,51.6976889 L221.956788,54.4178514 C221.554803,53.8932872 221.046462,53.4372229 220.438977,53.0839082 C217.945945,51.6382022 214.751692,52.4854364 213.304184,54.9802707 C211.856675,57.4733023 212.707515,60.669358 215.200546,62.115064 C217.549368,63.4778492 220.514687,62.8036671 222.06134,60.640516 L229.652198,64.6910165 C229.174502,66.3620507 229.85229,68.2079396 231.415166,69.136292 C231.813547,69.372436 232.235361,69.5256592 232.662583,69.60858 L233.051951,76.5919528 C232.325492,76.8515309 231.680152,77.3526609 231.249325,78.0665008 C230.265091,79.7032851 230.79326,81.8267784 232.431847,82.8110122 C234.066829,83.7952459 236.192125,83.2670765 237.174556,81.6302922 C237.63062,80.8713867 237.758607,80.0061262 237.605384,79.2003525 L243.431471,76.1989803 C244.63923,77.5635681 246.668987,77.9619485 248.33281,77.0444119 C250.259818,75.9826652 250.962842,73.559936 249.899292,71.6311262" id="Fill-20" fill="#FFFFFF" mask="url(#mask-12)"></path>
                    <path d="M217.820122,69.294202 C215.101762,69.294202 212.700665,70.6281452 211.217103,72.6741256 L205.183714,69.3266493 C205.841673,67.0751695 204.916926,64.5821379 202.797038,63.352747 C202.357197,63.0967741 201.893922,62.9165115 201.423437,62.8011435 L201.729883,57.232832 C204.487901,56.9209777 206.62942,54.5829719 206.62942,51.7438361 C206.62942,49.5103826 205.30449,47.5923886 203.397312,46.7199177 L205.286464,39.967281 C207.024196,39.880755 208.405007,38.4476673 208.401402,36.6901071 C208.395994,34.878468 206.925051,33.4129332 205.113412,33.4165318 C203.51268,33.4201437 202.185948,34.5684164 201.89933,36.0862274 L196.089467,36.3205688 C195.837099,35.572479 195.328759,34.9073101 194.598695,34.469272 C192.963713,33.4850382 190.838417,34.0132076 189.854184,35.6481893 C189.00695,37.0596454 189.284554,38.829824 190.425616,39.924018 L184.738331,50.8803783 C182.342642,50.2043936 179.701795,51.1958378 178.394891,53.4491202 C176.846435,56.1206118 177.754959,59.5401932 180.424648,61.0886488 C180.832041,61.3265955 181.259263,61.4978449 181.693696,61.6222261 L181.461157,67.7439437 C177.462933,68.2721131 174.375035,71.684484 174.375035,75.8251157 C174.375035,80.3316805 178.028958,83.9838006 182.535522,83.9838006 C185.304356,83.9838006 187.746914,82.6011865 189.223265,80.4903116 L196.466216,84.1424317 C196.262519,85.6350059 196.949319,87.1744485 198.328328,87.9892354 C198.622156,88.1622875 198.930405,88.2884713 199.242259,88.3767999 L199.32518,96.380459 C198.513999,96.6256161 197.791146,97.1646013 197.333279,97.9577567 C196.864596,98.770741 196.765451,99.6918828 196.978161,100.535512 L190.4833,104.376908 C190.333682,104.238105 190.169643,104.110119 189.985775,104.003764 C188.718529,103.2737 187.101574,103.706331 186.37151,104.971774 C185.639644,106.23902 186.07588,107.855976 187.341323,108.586039 C188.606767,109.316103 190.223722,108.88167 190.953786,107.616226 C191.216969,107.158359 191.328732,106.653624 191.303495,106.16331 L197.976816,102.215559 C198.164289,102.386809 198.369789,102.543637 198.600525,102.677031 C200.253533,103.63062 202.36621,103.062793 203.319799,101.409785 C204.273388,99.7567773 203.707364,97.6440998 202.054356,96.6905107 C201.803791,96.5463006 201.544213,96.4417483 201.279227,96.366038 L201.196306,88.4146551 C202.175132,88.1803137 203.060221,87.5638156 203.613627,86.6300554 C204.698808,84.7949822 204.089521,82.4263318 202.254447,81.3429536 C200.549163,80.3352857 198.387815,80.7913501 197.217911,82.3325952 L190.138999,78.7651986 C190.492313,77.8530698 190.692405,76.8634282 190.692405,75.8251157 C190.692405,71.6177868 187.508967,68.156745 183.417007,67.7151017 L183.640532,61.8259228 C185.417921,61.6943311 187.101574,60.7155053 188.062374,59.0588921 C189.517093,56.5514394 188.803253,53.3842257 186.503102,51.7240072 L192.159742,40.8217257 C193.544159,41.0903169 195.011496,40.4918451 195.779415,39.2137834 C195.96148,38.9127448 196.089467,38.5954827 196.170585,38.2728126 L202.126461,38.0312608 C202.395052,38.6333378 202.838498,39.1362704 203.393707,39.480572 L201.504555,46.2368139 C201.371161,46.2278008 201.239569,46.216985 201.104372,46.216985 C198.050724,46.216985 195.575718,48.6901878 195.575718,51.7438361 C195.575718,54.3396174 197.367529,56.5117816 199.781245,57.1048456 L199.472996,62.7001964 C197.933553,62.9129063 196.502268,63.8016008 195.662244,65.2491094 C194.214736,67.7439437 195.065575,70.9381968 197.558607,72.3839028 C199.846139,73.7106355 202.719525,73.1013479 204.296823,71.0679859 L210.265317,74.3794097 C209.879555,75.3293936 209.661437,76.3641008 209.661437,77.4528869 C209.661437,80.5678245 211.408182,83.273566 213.975121,84.6489695 L211.92193,89.9324661 C210.559145,89.9703212 209.466754,91.0843441 209.470359,92.4543398 C209.472162,93.845967 210.604211,94.9726082 211.99764,94.9690029 C213.387465,94.9653977 214.514106,93.8351512 214.510501,92.4417214 C214.508698,91.7332894 214.213068,91.0951598 213.74078,90.6390955 L215.797576,85.350191 C216.444719,85.5160326 217.120703,85.6115718 217.820122,85.6115718 C222.326687,85.6115718 225.978807,81.9594517 225.978807,77.4528869 C225.978807,72.9463221 222.326687,69.294202 217.820122,69.294202" id="Fill-21" fill="#FFFFFF" mask="url(#mask-12)"></path>
                    <path d="M187.409462,88.7209212 C185.094891,88.7263291 183.223765,90.6046653 183.229173,92.9210396 C183.230976,93.2527228 183.272436,93.5735902 183.346344,93.8836418 L178.805529,96.1873978 C178.520714,95.8467015 178.178215,95.5438603 177.774427,95.3059137 C176.292668,94.4298375 174.477424,94.629929 173.222796,95.6664389 L168.773916,92.6091853 C168.847823,92.3568177 168.889284,92.0900291 168.887481,91.8142273 C168.880271,90.5415734 168.005997,89.4762215 166.830685,89.1715777 L167.010948,84.0485149 C167.483236,83.9547783 167.951918,83.7835288 168.389956,83.5203455 C170.421516,82.2981651 171.077672,79.662726 169.857294,77.6311666 C168.636916,75.5996072 165.999674,74.9434514 163.968115,76.1638291 C162.243002,77.200339 161.514741,79.2589378 162.080766,81.0994189 L155.641786,84.852486 C155.257827,84.616342 154.805368,84.4829477 154.324066,84.4901582 C152.964886,84.5117897 151.881508,85.6294178 151.902821,86.9867951 C151.922969,88.345975 153.042399,89.4275506 154.399777,89.4059191 C155.757154,89.3860902 156.840532,88.2684621 156.818901,86.9092822 C156.817098,86.7542563 156.799072,86.6028358 156.768427,86.4568231 L163.061394,82.7884793 C163.6148,83.3743328 164.308811,83.778121 165.056901,83.9800151 L164.867625,89.3914981 C163.984339,89.8529703 163.382262,90.77952 163.38767,91.8448719 C163.396683,93.362683 164.633284,94.5866659 166.151095,94.5794554 C166.679264,94.5758502 167.167776,94.422627 167.585985,94.1630489 L172.069116,97.2455392 C171.34446,99.0373493 172.015037,101.139211 173.731137,102.152287 C174.113294,102.377615 174.518885,102.529036 174.929883,102.615562 L174.81812,112.124413 C173.251639,112.539017 172.099761,113.963092 172.105168,115.65756 C172.108774,117.672896 173.745558,119.30247 175.760894,119.297075 C177.77623,119.291654 179.407606,117.65487 179.402198,115.639534 C179.398593,113.981118 178.286373,112.585886 176.772167,112.146045 L176.88393,102.536246 C177.812282,102.260444 178.645095,101.649354 179.17687,100.749844 C179.694224,99.8719651 179.833026,98.8769156 179.645553,97.9503659 L184.231433,95.6267811 C185.002957,96.5298967 186.149427,97.1013291 187.429291,97.0995265 C189.74206,97.0941186 191.614989,95.2139798 191.609593,92.8994081 C191.60237,90.586639 189.722231,88.7155133 187.409462,88.7209212" id="Fill-22" fill="#FFFFFF" mask="url(#mask-12)"></path>
                    <path d="M181.306312,37.1003847 C179.465831,36.0332302 177.111601,36.6587414 176.044447,38.4974198 C175.458593,39.5104956 175.386488,40.6767946 175.743408,41.7006861 L170.012861,45.6916998 C168.93489,44.5866902 167.429698,43.8980871 165.764071,43.8980871 C162.481489,43.8980871 159.820814,46.5605655 159.820814,49.8413447 C159.820814,52.9400587 162.191267,55.4835638 165.219678,55.757563 L165.684756,62.0523327 C164.997955,62.2848714 164.374247,62.7066859 163.898353,63.2961445 L157.551308,60.3849037 C157.681097,59.602564 157.544097,58.7715535 157.104256,58.0396874 C156.120023,56.4047057 153.998332,55.8765363 152.359745,56.8589674 C150.724763,57.8432011 150.194791,59.9684971 151.179025,61.6034788 C151.613458,62.3245292 152.269614,62.8292644 153.006888,63.0870399 L153.006888,70.2344517 C151.553971,70.661674 150.50304,72.0118408 150.528277,73.5999543 C150.557119,75.5089351 152.129009,77.032154 154.03799,77.0015094 C155.946971,76.9726673 157.468387,75.4007776 157.439545,73.4917967 C157.414308,71.9415384 156.374193,70.6454504 154.960934,70.2290438 L154.960934,63.1825791 C155.290815,63.1014609 155.615287,62.9698692 155.923536,62.7860014 C156.22097,62.6057388 156.48235,62.3894237 156.704073,62.1442666 L163.081764,65.0717311 C162.800554,66.6346077 163.489157,68.2767999 164.934863,69.1348499 C166.796976,70.2416622 169.201679,69.6287694 170.308491,67.7666568 C171.415303,65.9045442 170.800608,63.4998413 168.940298,62.3948316 C168.523892,62.1478718 168.080446,61.9910434 167.631592,61.9099252 L167.168317,55.6115503 C169.771309,54.9788286 171.707329,52.6390201 171.707329,49.8413447 C171.707329,48.929216 171.494619,48.0675608 171.128686,47.2960369 L176.833997,43.3230494 C177.019667,43.4852857 177.221562,43.6331011 177.441482,43.7610875 C179.281963,44.828242 181.639798,44.2009282 182.70515,42.3622498 C183.772304,40.5235714 183.146793,38.1657367 181.306312,37.1003847" id="Fill-23" fill="#FFFFFF" mask="url(#mask-12)"></path>
                </g>
            </g>
        </g>
    </g>
</svg>